<svg xmlns="http://www.w3.org/2000/svg" xmlns:xlink="http://www.w3.org/1999/xlink" width="925" height="818" contentScriptType="application/ecmascript" contentStyleType="text/css" preserveAspectRatio="none" style="width:925px;height:818px;background:#fcfcfc" version="1.1" viewBox="0 0 925 818" zoomAndPan="magnify"><g><a href="../../framework/quantity_kinds.html#kind-creation" target="_top" title="../../framework/quantity_kinds.html#kind-creation" xlink:actuate="onRequest" xlink:href="../../framework/quantity_kinds.html#kind-creation" xlink:show="new" xlink:title="../../framework/quantity_kinds.html#kind-creation" xlink:type="simple"><rect width="167" height="91" x="193" fill="#FCFCFC" style="stroke:#000;stroke-width:1.5" y="244"/><path fill="none" d="M238,244 L238,253.2969 L228,263.2969 L193,263.2969" style="stroke:#000;stroke-width:1.5"/><text x="196" y="257.995" fill="#000" font-family="sans-serif" font-size="14" font-weight="bold" lengthAdjust="spacing" textLength="35">Kind</text></a><a href="../../framework/quantity_kinds.html#quantity-point-kinds" target="_top" title="../../framework/quantity_kinds.html#quantity-point-kinds" xlink:actuate="onRequest" xlink:href="../../framework/quantity_kinds.html#quantity-point-kinds" xlink:show="new" xlink:title="../../framework/quantity_kinds.html#quantity-point-kinds" xlink:type="simple"><rect width="241" height="91" x="60" fill="#FCFCFC" style="stroke:#000;stroke-width:1.5" y="537.5"/><path fill="none" d="M148,537.5 L148,546.7969 L138,556.7969 L60,556.7969" style="stroke:#000;stroke-width:1.5"/><text x="63" y="551.495" fill="#000" font-family="sans-serif" font-size="14" font-weight="bold" lengthAdjust="spacing" textLength="78">PointKind</text></a><a href="../../framework/quantity_points.html#point-origins" target="_top" title="../../framework/quantity_points.html#point-origins" xlink:actuate="onRequest" xlink:href="../../framework/quantity_points.html#point-origins" xlink:show="new" xlink:title="../../framework/quantity_points.html#point-origins" xlink:type="simple"><rect width="211" height="91" x="400" fill="#FCFCFC" style="stroke:#000;stroke-width:1.5" y="244"/><path fill="none" d="M502,244 L502,253.2969 L492,263.2969 L400,263.2969" style="stroke:#000;stroke-width:1.5"/><text x="403" y="257.995" fill="#000" font-family="sans-serif" font-size="14" font-weight="bold" lengthAdjust="spacing" textLength="92">PointOrigin</text></a><a href="../../framework/quantities.html" target="_top" title="../../framework/quantities.html" xlink:actuate="onRequest" xlink:href="../../framework/quantities.html" xlink:show="new" xlink:title="../../framework/quantities.html" xlink:type="simple"><rect width="251" height="112" x="531" fill="#FCFCFC" style="stroke:#000;stroke-width:1.5" y="375"/><path fill="none" d="M613,375 L613,384.2969 L603,394.2969 L531,394.2969" style="stroke:#000;stroke-width:1.5"/><text x="534" y="388.995" fill="#000" font-family="sans-serif" font-size="14" font-weight="bold" lengthAdjust="spacing" textLength="72">Quantity</text></a><a href="../../framework/quantity_points.html" target="_top" title="../../framework/quantity_points.html" xlink:actuate="onRequest" xlink:href="../../framework/quantity_points.html" xlink:show="new" xlink:title="../../framework/quantity_points.html" xlink:type="simple"><rect width="291" height="112" x="628" fill="#FCFCFC" style="stroke:#000;stroke-width:1.5" y="527"/><path fill="none" d="M753,527 L753,536.2969 L743,546.2969 L628,546.2969" style="stroke:#000;stroke-width:1.5"/><text x="631" y="540.995" fill="#000" font-family="sans-serif" font-size="14" font-weight="bold" lengthAdjust="spacing" textLength="115">QuantityPoint</text></a><a href="../../framework/quantity_kinds.html" target="_top" title="../../framework/quantity_kinds.html" xlink:actuate="onRequest" xlink:href="../../framework/quantity_kinds.html" xlink:show="new" xlink:title="../../framework/quantity_kinds.html" xlink:type="simple"><rect width="247" height="112" x="341" fill="#FCFCFC" style="stroke:#000;stroke-width:1.5" y="527"/><path fill="none" d="M458,527 L458,536.2969 L448,546.2969 L341,546.2969" style="stroke:#000;stroke-width:1.5"/><text x="344" y="540.995" fill="#000" font-family="sans-serif" font-size="14" font-weight="bold" lengthAdjust="spacing" textLength="107">QuantityKind</text></a><a href="../../framework/quantity_kinds.html#quantity-point-kinds" target="_top" title="../../framework/quantity_kinds.html#quantity-point-kinds" xlink:actuate="onRequest" xlink:href="../../framework/quantity_kinds.html#quantity-point-kinds" xlink:show="new" xlink:title="../../framework/quantity_kinds.html#quantity-point-kinds" xlink:type="simple"><rect width="313" height="112" x="69" fill="#FCFCFC" style="stroke:#000;stroke-width:1.5" y="700"/><path fill="none" d="M229,700 L229,709.2969 L219,719.2969 L69,719.2969" style="stroke:#000;stroke-width:1.5"/><text x="72" y="713.995" fill="#000" font-family="sans-serif" font-size="14" font-weight="bold" lengthAdjust="spacing" textLength="150">QuantityPointKind</text></a><a href="../../framework/units.html" target="_top" title="../../framework/units.html" xlink:actuate="onRequest" xlink:href="../../framework/units.html" xlink:show="new" xlink:title="../../framework/units.html" xlink:type="simple"><rect width="69" height="46.297" x="373.5" fill="#FCFCFC" style="stroke:#000;stroke-width:1.5" y="7"/><path fill="none" d="M396.5,7 L396.5,12 L389.5,19 L373.5,19" style="stroke:#000;stroke-width:1.5"/><text x="388.5" y="39.995" fill="#000" font-family="sans-serif" font-size="14" lengthAdjust="spacing" textLength="29">Unit</text></a><a href="../../framework/dimensions.html" target="_top" title="../../framework/dimensions.html" xlink:actuate="onRequest" xlink:href="../../framework/dimensions.html" xlink:show="new" xlink:title="../../framework/dimensions.html" xlink:type="simple"><rect width="116" height="46.297" x="350" fill="#FCFCFC" style="stroke:#000;stroke-width:1.5" y="113"/><path fill="none" d="M388.6667,113 L388.6667,118 L381.6667,125 L350,125" style="stroke:#000;stroke-width:1.5"/><text x="365" y="145.995" fill="#000" font-family="sans-serif" font-size="14" lengthAdjust="spacing" textLength="76">Dimension</text></a><a href="../../framework/quantity_kinds.html#kind-creation" target="_top" title="../../framework/quantity_kinds.html#kind-creation" xlink:actuate="onRequest" xlink:href="../../framework/quantity_kinds.html#kind-creation" xlink:show="new" xlink:title="../../framework/quantity_kinds.html#kind-creation" xlink:type="simple"><rect id="kind" width="99" height="23.969" x="236.5" y="287" fill="#F8F8F8" codeLine="16" style="stroke:#383838;stroke-width:1.5"/><text x="239.5" y="303.139" fill="#000" font-family="sans-serif" font-size="12" font-style="italic" lengthAdjust="spacing" textLength="26">kind</text><rect width="65" height="15.969" x="273.5" fill="#FCFCFC" style="stroke:#000;stroke-width:1;stroke-dasharray:2,2" y="284"/><text x="274.5" y="296.139" fill="#000" font-family="sans-serif" font-size="12" font-style="italic" lengthAdjust="spacing" textLength="63">Dimension</text></a><a href="../../framework/quantity_kinds.html#quantity-point-kinds" target="_top" title="../../framework/quantity_kinds.html#quantity-point-kinds" xlink:actuate="onRequest" xlink:href="../../framework/quantity_kinds.html#quantity-point-kinds" xlink:show="new" xlink:title="../../framework/quantity_kinds.html#quantity-point-kinds" xlink:type="simple"><rect id="point_kind" width="174" height="23.969" x="103" y="580.5" fill="#F8F8F8" codeLine="20" style="stroke:#383838;stroke-width:1.5"/><text x="106" y="596.639" fill="#000" font-family="sans-serif" font-size="12" font-style="italic" lengthAdjust="spacing" textLength="63">point_kind</text><rect width="103" height="15.969" x="177" fill="#FCFCFC" style="stroke:#000;stroke-width:1;stroke-dasharray:2,2" y="577.5"/><text x="178" y="589.639" fill="#000" font-family="sans-serif" font-size="12" font-style="italic" lengthAdjust="spacing" textLength="101">Kind, PointOrigin</text></a><a href="../../framework/quantity_points.html#point-origins" target="_top" title="../../framework/quantity_points.html#point-origins" xlink:actuate="onRequest" xlink:href="../../framework/quantity_points.html#point-origins" xlink:show="new" xlink:title="../../framework/quantity_points.html#point-origins" xlink:type="simple"><rect id="point_origin" width="144" height="23.969" x="443" y="287" fill="#F8F8F8" codeLine="24" style="stroke:#383838;stroke-width:1.5"/><text x="446" y="303.139" fill="#000" font-family="sans-serif" font-size="12" font-style="italic" lengthAdjust="spacing" textLength="71">point_origin</text><rect width="65" height="15.969" x="525" fill="#FCFCFC" style="stroke:#000;stroke-width:1;stroke-dasharray:2,2" y="284"/><text x="526" y="296.139" fill="#000" font-family="sans-serif" font-size="12" font-style="italic" lengthAdjust="spacing" textLength="63">Dimension</text></a><a href="../../framework/quantities.html#construction" target="_top" title="../../framework/quantities.html#construction" xlink:actuate="onRequest" xlink:href="../../framework/quantities.html#construction" xlink:show="new" xlink:title="../../framework/quantities.html#construction" xlink:type="simple"><rect id="quantity" width="184" height="44.773" x="574" y="418" fill="#F8F8F8" codeLine="28" style="stroke:#383838;stroke-width:1.5"/><text x="577" y="434.139" fill="#000" font-family="sans-serif" font-size="12" lengthAdjust="spacing" textLength="47">quantity</text><rect width="129" height="15.969" x="632" fill="#FCFCFC" style="stroke:#000;stroke-width:1;stroke-dasharray:2,2" y="415"/><text x="633" y="427.139" fill="#000" font-family="sans-serif" font-size="12" font-style="italic" lengthAdjust="spacing" textLength="127">Dimension, Unit, Rep</text><line style="stroke:#383838;stroke-width:1.5" x1="575" x2="757" y1="441.969" y2="441.969"/><text x="580" y="456.179" fill="#000" font-family="sans-serif" font-size="11" lengthAdjust="spacing" textLength="75">rep number()</text></a><a href="../../framework/quantity_points.html#construction" target="_top" title="../../framework/quantity_points.html#construction" xlink:actuate="onRequest" xlink:href="../../framework/quantity_points.html#construction" xlink:show="new" xlink:title="../../framework/quantity_points.html#construction" xlink:type="simple"><rect id="quantity_point" width="223" height="44.773" x="671.5" y="570" fill="#F8F8F8" codeLine="34" style="stroke:#383838;stroke-width:1.5"/><text x="674.5" y="586.139" fill="#000" font-family="sans-serif" font-size="12" lengthAdjust="spacing" textLength="83">quantity_point</text><rect width="132" height="15.969" x="765.5" fill="#FCFCFC" style="stroke:#000;stroke-width:1;stroke-dasharray:2,2" y="567"/><text x="766.5" y="579.139" fill="#000" font-family="sans-serif" font-size="12" font-style="italic" lengthAdjust="spacing" textLength="130">PointOrigin, Unit, Rep</text><line style="stroke:#383838;stroke-width:1.5" x1="672.5" x2="893.5" y1="593.969" y2="593.969"/><text x="677.5" y="608.179" fill="#000" font-family="sans-serif" font-size="11" lengthAdjust="spacing" textLength="102">quantity relative()</text></a><a href="../../framework/quantity_kinds.html#construction" target="_top" title="../../framework/quantity_kinds.html#construction" xlink:actuate="onRequest" xlink:href="../../framework/quantity_kinds.html#construction" xlink:show="new" xlink:title="../../framework/quantity_kinds.html#construction" xlink:type="simple"><rect id="quantity_kind" width="179" height="44.773" x="384.5" y="570" fill="#F8F8F8" codeLine="40" style="stroke:#383838;stroke-width:1.5"/><text x="387.5" y="586.139" fill="#000" font-family="sans-serif" font-size="12" lengthAdjust="spacing" textLength="78">quantity_kind</text><rect width="93" height="15.969" x="473.5" fill="#FCFCFC" style="stroke:#000;stroke-width:1;stroke-dasharray:2,2" y="567"/><text x="474.5" y="579.139" fill="#000" font-family="sans-serif" font-size="12" font-style="italic" lengthAdjust="spacing" textLength="91">Kind, Unit, Rep</text><line style="stroke:#383838;stroke-width:1.5" x1="385.5" x2="562.5" y1="593.969" y2="593.969"/><text x="390.5" y="608.179" fill="#000" font-family="sans-serif" font-size="11" lengthAdjust="spacing" textLength="107">quantity common()</text></a><a href="../../framework/quantity_kinds.html#quantity-point-kinds" target="_top" title="../../framework/quantity_kinds.html#quantity-point-kinds" xlink:actuate="onRequest" xlink:href="../../framework/quantity_kinds.html#quantity-point-kinds" xlink:show="new" xlink:title="../../framework/quantity_kinds.html#quantity-point-kinds" xlink:type="simple"><rect id="quantity_point_kind" width="245" height="44.773" x="112.5" y="743" fill="#F8F8F8" codeLine="46" style="stroke:#383838;stroke-width:1.5"/><text x="115.5" y="759.139" fill="#000" font-family="sans-serif" font-size="12" lengthAdjust="spacing" textLength="114">quantity_point_kind</text><rect width="123" height="15.969" x="237.5" fill="#FCFCFC" style="stroke:#000;stroke-width:1;stroke-dasharray:2,2" y="740"/><text x="238.5" y="752.139" fill="#000" font-family="sans-serif" font-size="12" font-style="italic" lengthAdjust="spacing" textLength="121">PointKind, Unit, Rep</text><line style="stroke:#383838;stroke-width:1.5" x1="113.5" x2="356.5" y1="766.969" y2="766.969"/><text x="118.5" y="781.179" fill="#000" font-family="sans-serif" font-size="11" lengthAdjust="spacing" textLength="131">quantity_kind relative()</text></a><path id="Unit-backto-Dimension" fill="none" d="M408,58.192 C408,75.262 408,96.989 408,112.976" style="stroke:#383838;stroke-width:1;stroke-dasharray:7,7"/><polygon fill="#383838" points="408 53.056 404 62.056 408 58.056 412 62.056 408 53.056" style="stroke:#383838;stroke-width:1"/><path id="Dimension-backto-Quantity" fill="none" d="M470.945,148.015 C516.207,159.579 574.149,182.699 603,228 C632.366,274.11 638.11,309.098 603,351 C589.954,366.57 572.759,345.043 558,359 C554.7656,362.0586 552.036,365.5569 549.7362,369.3436 C549.1613,370.2902 548.6132,371.2549 548.0909,372.2352 C547.8297,372.7254 547.5749,373.2195 547.3264,373.7172 C547.2022,373.966 547.0795,374.2158 546.9584,374.4664 C546.8978,374.5917 546.8377,374.7173 546.7779,374.843" style="stroke:#383838;stroke-width:1;stroke-dasharray:7,7"/><polygon fill="#383838" points="466.05 146.796 473.818 152.851 470.902 148.003 475.75 145.088 466.05 146.796" style="stroke:#383838;stroke-width:1"/><path id="Unit-backto-Quantity" fill="none" d="M447.467,50.131 C502.971,79.525 601.795,141.597 642,228 C665.063,277.564 678.777,310.554 642,351 C629.385,364.873 572.134,346.678 558,359 C554.6445,361.9251 551.823,365.3223 549.4555,369.0342 C548.2717,370.8901 547.2014,372.8248 546.2346,374.8185" style="stroke:#383838;stroke-width:1;stroke-dasharray:7,7"/><polygon fill="#383838" points="442.891 47.729 449 55.454 447.318 50.053 452.719 48.371 442.891 47.729" style="stroke:#383838;stroke-width:1"/><path id="Dimension-backto-Kind" fill="none" d="M344.831,152.802 C303.642,166.251 251.814,189.65 220,228 C217.5076,231.0044 215.3403,234.3076 213.4558,237.7932 C212.5135,239.536 211.642,241.3245 210.8359,243.1439 C210.7351,243.3714 210.6353,243.5993 210.5366,243.8277" style="stroke:#383838;stroke-width:1;stroke-dasharray:7,7"/><polygon fill="#383838" points="349.8 151.211 340.009 150.148 345.038 152.737 342.45 157.767 349.8 151.211" style="stroke:#383838;stroke-width:1"/><path id="Dimension-backto-PointOrigin" fill="none" d="M408,164.077 C408,175.3583 408,189.1913 408,203.6384 C408,210.862 408,218.2391 408,225.5276 C408,229.1718 408,232.7939 408,236.3636 C408,238.1484 408,239.9201 408,241.6749 C408,242.1136 408,242.5512 408,242.9878 C408,243.206 408,243.424 408,243.6417" style="stroke:#383838;stroke-width:1;stroke-dasharray:7,7"/><polygon fill="#383838" points="408 159.049 404 168.049 408 164.049 412 168.049 408 159.049" style="stroke:#383838;stroke-width:1"/><path id="PointOrigin-backto-PointKind" fill="none" d="M399.9204,307.7672 C399.6824,307.9939 399.4399,308.2246 399.1932,308.4592 C398.2064,309.3976 397.1513,310.3983 396.0354,311.4529 C393.8037,313.562 391.3291,315.887 388.673,318.3616 C378.0485,328.26 364.5185,340.552 352,351 C266.556,422.313 256.085,461.053 153,503 C139.316,508.568 98.011,501.15 87,511 C80.3646,516.936 75.8288,524.7184 72.7648,533.1048 C72.3818,534.1531 72.0218,535.2108 71.6836,536.2755 C71.599,536.5417 71.5158,536.8083 71.4339,537.0754 C71.393,537.2089 71.3524,537.3425 71.3122,537.4762" style="stroke:#383838;stroke-width:1;stroke-dasharray:7,7"/><polygon fill="#383838" points="399.92 307.767 390.644 311.077 396.3 311.215 396.161 316.871 399.92 307.767" style="stroke:#383838;stroke-width:1"/><path id="Kind-backto-PointKind" fill="none" d="M192.7677,312.4035 C191.175,314.8435 189.3808,317.6118 187.4119,320.6797 C179.5361,332.9512 168.8633,350.0162 157.0968,370.0396 C133.5638,410.0865 105.656,461.967 87,511 C83.834,519.321 81.0871,528.3333 78.7419,537.2139" style="stroke:#383838;stroke-width:1;stroke-dasharray:7,7"/><polygon fill="#383838" points="192.768 312.404 184.499 317.754 190.035 316.591 191.198 322.127 192.768 312.404" style="stroke:#383838;stroke-width:1"/><path id="Unit-backto-QuantityPoint" fill="none" d="M447.88,30.995 C551.995,33.277 824,54.938 824,219 C824,219 824,219 824,300 C824,392.919 845.175,443.267 774,503 C753.698,520.038 675.219,493.863 655,511 C651.6041,513.8781 648.7521,517.2396 646.3619,520.9252 C645.1669,522.768 644.0873,524.6919 643.1129,526.6768" style="stroke:#383838;stroke-width:1;stroke-dasharray:7,7"/><polygon fill="#383838" points="442.752 30.895 451.673 35.069 447.751 30.992 451.828 27.071 442.752 30.895" style="stroke:#383838;stroke-width:1"/><path id="PointOrigin-backto-QuantityPoint" fill="none" d="M417.0792,335.5885 C417.1578,335.8517 417.2369,336.1159 417.3166,336.3812 C417.4759,336.9117 417.6375,337.4465 417.8014,337.9854 C419.1121,342.297 420.5668,346.8737 422.1727,351.6604 C425.3844,361.2337 429.2009,371.6468 433.6805,382.4578 C451.599,425.7015 480.1275,475.3105 523,503 C544.489,516.879 558.207,497.602 580,511 C597.984,522.056 611.6847,541.2883 621.0323,558.1821 C623.3691,562.4056 625.4339,566.4829 627.2255,570.2498 C627.4495,570.7207 627.6692,571.1867 627.8846,571.6475" style="stroke:#383838;stroke-width:1;stroke-dasharray:7,7"/><polygon fill="#383838" points="417.079 335.589 415.821 345.357 418.51 340.38 423.487 343.068 417.079 335.589" style="stroke:#383838;stroke-width:1"/><path id="quantity-to-quantity_point" fill="none" d="M683.013,463.311 C702.682,488.529 735.244,530.274 757.841,559.246" codeLine="64" style="stroke:#383838;stroke-width:1"/><polygon fill="#383838" points="765.967 569.662 765.431 562.471 758.586 560.2 759.123 567.391 765.967 569.662" style="stroke:#383838;stroke-width:1"/><path id="Unit-backto-QuantityKind" fill="none" d="M368.366,40.059 C295.58,59.302 148,111.565 148,219 C148,219 148,219 148,300 C148,395.581 144.142,443.569 219,503 C244.908,523.569 264.548,494.124 293,511 C311.157,521.7695 324.863,540.993 334.17,557.9539 C336.4968,562.1941 338.5486,566.2929 340.3263,570.0828 C340.5485,570.5566 340.7664,571.0255 340.98,571.4893" style="stroke:#383838;stroke-width:1;stroke-dasharray:7,7"/><polygon fill="#383838" points="373.474 38.73 363.756 37.127 368.635 39.99 365.772 44.869 373.474 38.73" style="stroke:#383838;stroke-width:1"/><path id="Kind-backto-QuantityKind" fill="none" d="M213.3487,335.0716 C213.3831,335.1598 213.4176,335.2481 213.4521,335.3364 C213.5902,335.6896 213.729,336.0431 213.8683,336.3967 C214.147,337.1039 214.4282,337.8118 214.7115,338.5193 C215.2781,339.9344 215.8535,341.3479 216.436,342.7521 C217.6008,345.5603 218.7936,348.3309 220,351 C244.587,405.4015 276.2213,464.5123 302.0095,510.5179 C314.9036,533.5207 326.3363,553.2472 334.6957,567.4707 C336.7856,571.0265 338.6834,574.2385 340.3639,577.0716 C340.574,577.4258 340.7807,577.774 340.9839,578.1163" style="stroke:#383838;stroke-width:1;stroke-dasharray:7,7"/><polygon fill="#383838" points="213.349 335.072 212.895 344.91 215.167 339.729 220.347 342.001 213.349 335.072" style="stroke:#383838;stroke-width:1"/><path id="quantity-to-quantity_kind" fill="none" d="M638.082,463.311 C604.855,489.269 549.212,532.74 512.062,561.764" codeLine="68" style="stroke:#383838;stroke-width:1"/><polygon fill="#383838" points="501.641 569.906 508.832 569.364 511.098 562.519 503.907 563.06 501.641 569.906" style="stroke:#383838;stroke-width:1"/><path id="Unit-backto-QuantityPointKind" fill="none" d="M368.078,31.546 C266.463,35.252 6,60.236 6,219 C6,219 6,219 6,593.5 C6,634.0025 23.1997,676.0599 40.668,708.3298 C49.4022,724.4648 58.2036,738.153 64.9558,747.9765 C65.7998,749.2044 66.6118,750.372 67.3877,751.4764 C67.7756,752.0286 68.1545,752.565 68.5238,753.0853 C68.6162,753.2153 68.7079,753.3444 68.799,753.4724" style="stroke:#383838;stroke-width:1;stroke-dasharray:7,7"/><polygon fill="#383838" points="373.378 31.367 364.247 27.675 368.381 31.537 364.519 35.671 373.378 31.367" style="stroke:#383838;stroke-width:1"/><path id="PointKind-backto-QuantityPointKind" fill="none" d="M69.8533,628.7128 C69.8674,628.9804 69.8815,629.249 69.8957,629.5186 C69.9241,630.0579 69.9527,630.6011 69.9815,631.1482 C70.0391,632.2423 70.0975,633.3519 70.1566,634.4757 C70.3932,638.971 70.6418,643.694 70.8983,648.5688 C71.4115,658.3184 71.9566,668.6752 72.5016,679.0313 C72.7742,684.2093 73.0467,689.3872 73.3152,694.489 C73.3823,695.7645 73.4492,697.0352 73.5158,698.2999 C73.5324,698.6161 73.549,698.9319 73.5656,699.2473 C73.5739,699.4051 73.5822,699.5627 73.5905,699.7202" style="stroke:#383838;stroke-width:1;stroke-dasharray:7,7"/><polygon fill="#383838" points="69.853 628.713 66.332 637.911 70.116 633.706 74.321 637.49 69.853 628.713" style="stroke:#383838;stroke-width:1"/><path id="quantity_kind-to-quantity_point_kind" fill="none" d="M443.73,615.157 C401.286,645.525 323.949,700.859 276.264,734.976" codeLine="72" style="stroke:#383838;stroke-width:1"/><polygon fill="#383838" points="265.4 742.749 272.607 742.511 275.159 735.767 267.952 736.005 265.4 742.749" style="stroke:#383838;stroke-width:1"/></g></svg>