<svg xmlns="http://www.w3.org/2000/svg" xmlns:xlink="http://www.w3.org/1999/xlink" width="288" height="348" contentStyleType="text/css" preserveAspectRatio="none" style="width:288px;height:348px;background:#fcfcfc" version="1.1" viewBox="0 0 288 348" zoomAndPan="magnify"><g><a href="../framework/quantities.html" target="_top" title="../framework/quantities.html" xlink:actuate="onRequest" xlink:href="../framework/quantities.html" xlink:show="new" xlink:title="../framework/quantities.html" xlink:type="simple"><g id="elem_quantity"><rect id="quantity" width="66" height="26.297" x="80" y="110" fill="#F1F1F1" codeLine="8" rx="2.5" ry="2.5" style="stroke:#181818;stroke-width:.5"/><text x="83" y="127.995" fill="#000" font-family="sans-serif" font-size="14" lengthAdjust="spacing" textLength="60">quantity</text></g></a><a href="../framework/quantity_points.html" target="_top" title="../framework/quantity_points.html" xlink:actuate="onRequest" xlink:href="../framework/quantity_points.html" xlink:show="new" xlink:title="../framework/quantity_points.html" xlink:type="simple"><g id="elem_quantity_point"><rect id="quantity_point" width="112" height="26.297" x="7" y="213" fill="#F1F1F1" codeLine="9" rx="2.5" ry="2.5" style="stroke:#181818;stroke-width:.5"/><text x="10" y="230.995" fill="#000" font-family="sans-serif" font-size="14" lengthAdjust="spacing" textLength="106">quantity_point</text></g></a><a href="../framework/quantity_kinds.html" target="_top" title="../framework/quantity_kinds.html" xlink:actuate="onRequest" xlink:href="../framework/quantity_kinds.html" xlink:show="new" xlink:title="../framework/quantity_kinds.html" xlink:type="simple"><g id="elem_quantity_kind"><rect id="quantity_kind" width="104" height="26.297" x="154" y="213" fill="#F1F1F1" codeLine="10" rx="2.5" ry="2.5" style="stroke:#181818;stroke-width:.5"/><text x="157" y="230.995" fill="#000" font-family="sans-serif" font-size="14" lengthAdjust="spacing" textLength="98">quantity_kind</text></g></a><a href="../framework/quantity_kinds.html#quantity-point-kinds" target="_top" title="../framework/quantity_kinds.html#quantity-point-kinds" xlink:actuate="onRequest" xlink:href="../framework/quantity_kinds.html#quantity-point-kinds" xlink:show="new" xlink:title="../framework/quantity_kinds.html#quantity-point-kinds" xlink:type="simple"><g id="elem_quantity_point_kind"><rect id="quantity_point_kind" width="150" height="26.297" x="131" y="316" fill="#F1F1F1" codeLine="11" rx="2.5" ry="2.5" style="stroke:#181818;stroke-width:.5"/><text x="134" y="333.995" fill="#000" font-family="sans-serif" font-size="14" lengthAdjust="spacing" textLength="144">quantity_point_kind</text></g></a><g id="elem_Rep"><rect id="Rep" width="35" height="26.297" x="95.5" y="7" fill="#F1F1F1" rx="2.5" ry="2.5" style="stroke:#181818;stroke-width:.5"/><text x="98.5" y="24.995" fill="#000" font-family="sans-serif" font-size="14" lengthAdjust="spacing" textLength="29">Rep</text></g><g id="link_Rep_quantity"><path id="Rep-backto-quantity" fill="none" d="M113,38.526 C113,58.92 113,92.061 113,109.83" codeLine="13" style="stroke:#181818;stroke-width:1"/><polygon fill="#181818" points="113 33.385 109 42.385 113 38.385 117 42.385 113 33.385" style="stroke:#181818;stroke-width:1"/><text x="114" y="76.067" fill="#000" font-family="sans-serif" font-size="13" lengthAdjust="spacing" textLength="60">number()</text></g><g id="link_quantity_quantity_point"><path id="quantity-backto-quantity_point" fill="none" d="M98.633,140.033 C92.5205,147.508 85.7271,156.776 81,166 C73.1851,181.249 68.1076,200.483 65.3984,212.765" codeLine="14" style="stroke:#181818;stroke-width:1"/><polygon fill="#181818" points="101.941 136.076 93.1 140.415 98.734 139.912 99.237 145.546 101.941 136.076" style="stroke:#181818;stroke-width:1"/><text x="82" y="179.067" fill="#000" font-family="sans-serif" font-size="13" lengthAdjust="spacing" textLength="58">relative()</text></g><g id="link_quantity_quantity_kind"><path id="quantity-backto-quantity_kind" fill="none" d="M127.956,140.242 C146.612,160.503 178.084,194.683 194.794,212.83" codeLine="15" style="stroke:#181818;stroke-width:1"/><polygon fill="#181818" points="124.404 136.385 127.558 145.715 127.791 140.063 133.443 140.296 124.404 136.385" style="stroke:#181818;stroke-width:1"/><text x="167" y="179.067" fill="#000" font-family="sans-serif" font-size="13" lengthAdjust="spacing" textLength="67">common()</text></g><g id="link_quantity_kind_quantity_point_kind"><path id="quantity_kind-backto-quantity_point_kind" fill="none" d="M206,244.5264 C206,264.9203 206,298.0611 206,315.8296" codeLine="16" style="stroke:#181818;stroke-width:1"/><polygon fill="#181818" points="206 239.385 202 248.385 206 244.385 210 248.385 206 239.385" style="stroke:#181818;stroke-width:1"/><text x="207" y="282.067" fill="#000" font-family="sans-serif" font-size="13" lengthAdjust="spacing" textLength="58">relative()</text></g></g></svg>