<svg xmlns="http://www.w3.org/2000/svg" xmlns:xlink="http://www.w3.org/1999/xlink" width="591" height="456" contentStyleType="text/css" preserveAspectRatio="none" style="width:591px;height:456px;background:#fcfcfc" version="1.1" viewBox="0 0 591 456" zoomAndPan="magnify"><g><g id="cluster_Unit"><a href="../../framework/units.html" target="_top" title="../../framework/units.html" xlink:actuate="onRequest" xlink:href="../../framework/units.html" xlink:show="new" xlink:title="../../framework/units.html" xlink:type="simple"><rect height="443" rx="2.5" ry="2.5" style="stroke:#181818;stroke-width:1;fill:none" width="578" x="7" y="7"/><path fill="none" d="M51,7 L51,16.2969 L41,26.2969 L7,26.2969" style="stroke:#181818;stroke-width:1"/><text x="10" y="20.995" fill="#000" font-family="sans-serif" font-size="14" font-weight="bold" lengthAdjust="spacing" textLength="34">Unit</text></a></g><g id="elem_scaled_unit"><rect id="scaled_unit" width="178" height="26.297" x="23" y="225" fill="#F1F1F1" codeLine="12" rx="2.5" ry="2.5" style="stroke:#181818;stroke-width:.5"/><text x="26" y="242.995" fill="#000" font-family="sans-serif" font-size="14" font-style="italic" lengthAdjust="spacing" textLength="80">scaled_unit</text><rect width="90" height="15.969" x="114" fill="#FCFCFC" style="stroke:#000;stroke-width:1;stroke-dasharray:2,2" y="222"/><text x="115" y="234.139" fill="#000" font-family="sans-serif" font-size="12" font-style="italic" lengthAdjust="spacing" textLength="88">UnitRatio, Unit</text></g><a href="../../framework/units.html#aliased-units" target="_top" title="../../framework/units.html#aliased-units" xlink:actuate="onRequest" xlink:href="../../framework/units.html#aliased-units" xlink:show="new" xlink:title="../../framework/units.html#aliased-units" xlink:type="simple"><g id="elem_prefixed_alias_unit"><rect id="prefixed_alias_unit" width="269" height="26.297" x="280.5" y="408" fill="#F1F1F1" codeLine="14" rx="2.5" ry="2.5" style="stroke:#181818;stroke-width:.5"/><text x="283.5" y="425.995" fill="#000" font-family="sans-serif" font-size="14" font-style="italic" lengthAdjust="spacing" textLength="133">prefixed_alias_unit</text><rect width="128" height="15.969" x="424.5" fill="#FCFCFC" style="stroke:#000;stroke-width:1;stroke-dasharray:2,2" y="405"/><text x="425.5" y="417.139" fill="#000" font-family="sans-serif" font-size="12" font-style="italic" lengthAdjust="spacing" textLength="126">Unit, Prefix, AliasUnit</text></g></a><a href="../../framework/units.html#aliased-units" target="_top" title="../../framework/units.html#aliased-units" xlink:actuate="onRequest" xlink:href="../../framework/units.html#aliased-units" xlink:show="new" xlink:title="../../framework/units.html#aliased-units" xlink:type="simple"><g id="elem_alias_unit"><rect id="alias_unit" width="155" height="26.297" x="337.5" y="347" fill="#F1F1F1" codeLine="15" rx="2.5" ry="2.5" style="stroke:#181818;stroke-width:.5"/><text x="340.5" y="364.995" fill="#000" font-family="sans-serif" font-size="14" font-style="italic" lengthAdjust="spacing" textLength="67">alias_unit</text><rect width="80" height="15.969" x="415.5" fill="#FCFCFC" style="stroke:#000;stroke-width:1;stroke-dasharray:2,2" y="344"/><text x="416.5" y="356.139" fill="#000" font-family="sans-serif" font-size="12" font-style="italic" lengthAdjust="spacing" textLength="78">Unit, Symbol</text></g></a><a href="../../framework/units.html#derived-scaled-units" target="_top" title="../../framework/units.html#derived-scaled-units" xlink:actuate="onRequest" xlink:href="../../framework/units.html#derived-scaled-units" xlink:show="new" xlink:title="../../framework/units.html#derived-scaled-units" xlink:type="simple"><g id="elem_derived_deduced_unit"><rect id="derived_scaled_unit" width="308" height="26.297" x="261" y="286" fill="#F1F1F1" codeLine="16" rx="2.5" ry="2.5" style="stroke:#181818;stroke-width:.5"/><text x="264" y="303.995" fill="#000" font-family="sans-serif" font-size="14" font-style="italic" lengthAdjust="spacing" textLength="157">derived_scaled_unit</text><rect width="143" height="15.969" x="429" fill="#FCFCFC" style="stroke:#000;stroke-width:1;stroke-dasharray:2,2" y="283"/><text x="430" y="295.139" fill="#000" font-family="sans-serif" font-size="12" font-style="italic" lengthAdjust="spacing" textLength="141">Dimension, Unit, Unit...</text></g></a><a href="../../framework/units.html#derived-unnamed-units" target="_top" title="../../framework/units.html#derived-unnamed-units" xlink:actuate="onRequest" xlink:href="../../framework/units.html#derived-unnamed-units" xlink:show="new" xlink:title="../../framework/units.html#derived-unnamed-units" xlink:type="simple"><g id="elem_derived_unit"><rect id="derived_unit" width="94" height="26.297" x="368" y="225" fill="#F1F1F1" codeLine="17" rx="2.5" ry="2.5" style="stroke:#181818;stroke-width:.5"/><text x="371" y="242.995" fill="#000" font-family="sans-serif" font-size="14" font-style="italic" lengthAdjust="spacing" textLength="88">derived_unit</text></g></a><a href="../../framework/units.html#prefixed-unit" target="_top" title="../../framework/units.html#prefixed-unit" xlink:actuate="onRequest" xlink:href="../../framework/units.html#prefixed-unit" xlink:show="new" xlink:title="../../framework/units.html#prefixed-unit" xlink:type="simple"><g id="elem_prefixed_unit"><rect id="prefixed_unit" width="169" height="26.297" x="330.5" y="164" fill="#F1F1F1" codeLine="18" rx="2.5" ry="2.5" style="stroke:#181818;stroke-width:.5"/><text x="333.5" y="181.995" fill="#000" font-family="sans-serif" font-size="14" font-style="italic" lengthAdjust="spacing" textLength="93">prefixed_unit</text><rect width="68" height="15.969" x="434.5" fill="#FCFCFC" style="stroke:#000;stroke-width:1;stroke-dasharray:2,2" y="161"/><text x="435.5" y="173.139" fill="#000" font-family="sans-serif" font-size="12" font-style="italic" lengthAdjust="spacing" textLength="66">Prefix, Unit</text></g></a><a href="../../framework/units.html#named-scaled-units" target="_top" title="../../framework/units.html#named-scaled-units" xlink:actuate="onRequest" xlink:href="../../framework/units.html#named-scaled-units" xlink:show="new" xlink:title="../../framework/units.html#named-scaled-units" xlink:type="simple"><g id="elem_named_scaled_unit"><rect id="named_scaled_unit" width="263" height="26.297" x="283.5" y="103" fill="#F1F1F1" codeLine="19" rx="2.5" ry="2.5" style="stroke:#181818;stroke-width:.5"/><text x="286.5" y="120.995" fill="#000" font-family="sans-serif" font-size="14" font-style="italic" lengthAdjust="spacing" textLength="137">named_scaled_unit</text><rect width="118" height="15.969" x="431.5" fill="#FCFCFC" style="stroke:#000;stroke-width:1;stroke-dasharray:2,2" y="100"/><text x="432.5" y="112.139" fill="#000" font-family="sans-serif" font-size="12" font-style="italic" lengthAdjust="spacing" textLength="116">Symbol, Ratio, Unit</text></g></a><a href="../../framework/units.html#base-units" target="_top" title="../../framework/units.html#base-units" xlink:actuate="onRequest" xlink:href="../../framework/units.html#base-units" xlink:show="new" xlink:title="../../framework/units.html#base-units" xlink:type="simple"><g id="elem_named_unit"><rect id="named_unit" width="139" height="26.297" x="345.5" y="42" fill="#F1F1F1" codeLine="20" rx="2.5" ry="2.5" style="stroke:#181818;stroke-width:.5"/><text x="348.5" y="59.995" fill="#000" font-family="sans-serif" font-size="14" font-style="italic" lengthAdjust="spacing" textLength="84">named_unit</text><rect width="47" height="15.969" x="440.5" fill="#FCFCFC" style="stroke:#000;stroke-width:1;stroke-dasharray:2,2" y="39"/><text x="441.5" y="51.139" fill="#000" font-family="sans-serif" font-size="12" font-style="italic" lengthAdjust="spacing" textLength="45">Symbol</text></g></a><g id="link_scaled_unit_named_unit"><path id="scaled_unit-backto-named_unit" fill="none" d="M133.027,208.194 C158.437,172.883 205.676,115.067 261,85 C286.686,71.041 317.93,63.52 345.471,59.49" codeLine="22" style="stroke:#181818;stroke-width:1"/><polygon fill="none" points="138.679 212.326 121.521 224.76 127.181 204.34 138.679 212.326" style="stroke:#181818;stroke-width:1"/></g><g id="link_scaled_unit_named_scaled_unit"><path id="scaled_unit-backto-named_scaled_unit" fill="none" d="M145.911,212.637 C174.734,191.666 218.536,162.71 261,146 C279.262,138.814 299.451,133.292 319.011,129.068" codeLine="23" style="stroke:#181818;stroke-width:1"/><polygon fill="none" points="149.884 218.407 129.672 224.769 141.505 207.191 149.884 218.407" style="stroke:#181818;stroke-width:1"/></g><g id="link_scaled_unit_prefixed_unit"><path id="scaled_unit-backto-prefixed_unit" fill="none" d="M194.254,220.784 C215.93,216.246 239.344,211.391 261,207 C288.988,201.325 319.892,195.233 346.556,190.03" codeLine="24" style="stroke:#181818;stroke-width:1"/><polygon fill="none" points="195.542 227.667 174.53 224.927 192.664 213.966 195.542 227.667" style="stroke:#181818;stroke-width:1"/></g><g id="link_scaled_unit_derived_unit"><path id="scaled_unit-backto-derived_unit" fill="none" d="M221.579,238 C271.79,238 328.764,238 367.604,238" codeLine="25" style="stroke:#181818;stroke-width:1"/><polygon fill="none" points="221.276 245 201.276 238 221.276 231 221.276 245" style="stroke:#181818;stroke-width:1"/></g><g id="link_scaled_unit_derived_deduced_unit"><path id="scaled_unit-backto-derived_scaled_unit" fill="none" d="M197.3,255.089 C218.121,259.31 240.369,263.819 261,268 C290.086,273.894 322.282,280.418 349.606,285.954" codeLine="26" style="stroke:#181818;stroke-width:1"/><polygon fill="none" points="195.683 261.904 177.472 251.07 198.464 248.183 195.683 261.904" style="stroke:#181818;stroke-width:1"/></g><g id="link_scaled_unit_alias_unit"><path id="scaled_unit-backto-alias_unit" fill="none" d="M145.982,263.005 C174.849,283.698 218.676,312.311 261,329 C285.078,338.494 312.484,345.219 337.384,349.919" codeLine="27" style="stroke:#181818;stroke-width:1"/><polygon fill="none" points="141.677 268.529 129.714 251.039 149.972 257.251 141.677 268.529" style="stroke:#181818;stroke-width:1"/></g><g id="link_scaled_unit_prefixed_alias_unit"><path id="scaled_unit-backto-prefixed_alias_unit" fill="none" d="M133.104,267.552 C158.592,302.572 205.908,359.952 261,390 C275.157,397.7215 290.998,403.5283 306.976,407.8934" codeLine="28" style="stroke:#181818;stroke-width:1"/><polygon fill="none" points="127.332 271.513 121.559 251.125 138.786 263.462 127.332 271.513" style="stroke:#181818;stroke-width:1"/></g></g></svg>